HIERARCHY
ROOT root
{
	OFFSET 0.000000 0.000000 0.000000
	CHANNELS 6 Xposition Yposition Zposition Zrotation Yrotation Xrotation
	JOINT lhip
	{
		OFFSET 0.058581 -0.082280 -0.017664
		CHANNELS 3 Zrotation Yrotation Xrotation
		JOINT lknee
		{
			OFFSET 0.043451 -0.386469 0.008037
			CHANNELS 3 Zrotation Yrotation Xrotation
			JOINT lankle
			{
				OFFSET -0.014790 -0.426874 -0.037428
				CHANNELS 3 Zrotation Yrotation Xrotation
				JOINT ltoe
				{
					OFFSET 0.041054 -0.060286 0.122042
					CHANNELS 3 Zrotation Yrotation Xrotation
					End Site
					{
						OFFSET 0.000000 0.000000 0.000000
					}
				}
			}
		}
	}
	JOINT rhip
	{
		OFFSET -0.060310 -0.090513 -0.013543
		CHANNELS 3 Zrotation Yrotation Xrotation
		JOINT rknee
		{
			OFFSET -0.043257 -0.383688 -0.004843
			CHANNELS 3 Zrotation Yrotation Xrotation
			JOINT rankle
			{
				OFFSET 0.019056 -0.420046 -0.034562
				CHANNELS 3 Zrotation Yrotation Xrotation
				JOINT rtoe
				{
					OFFSET -0.034840 -0.062106 0.130323
					CHANNELS 3 Zrotation Yrotation Xrotation
					End Site
					{
						OFFSET 0.000000 0.000000 0.000000
					}
				}
			}
		}
	}
	JOINT lowerback
	{
		OFFSET 0.004439 0.124404 -0.038385
		CHANNELS 3 Zrotation Yrotation Xrotation
		JOINT upperback
		{
			OFFSET 0.004488 0.137956 0.026820
			CHANNELS 3 Zrotation Yrotation Xrotation
			JOINT chest
			{
				OFFSET -0.002265 0.056032 0.002855
				CHANNELS 3 Zrotation Yrotation Xrotation
				JOINT lowerneck
				{
					OFFSET -0.013390 0.211636 -0.033468
					CHANNELS 3 Zrotation Yrotation Xrotation
					JOINT upperneck
					{
						OFFSET 0.010113 0.088937 0.050410
						CHANNELS 3 Zrotation Yrotation Xrotation
						End Site
						{
							OFFSET 0.000000 0.000000 0.000000
						}
					}
				}
				JOINT lclavicle
				{
					OFFSET 0.071702 0.114000 -0.018898
					CHANNELS 3 Zrotation Yrotation Xrotation
					JOINT lshoulder
					{
						OFFSET 0.122921 0.045205 -0.019046
						CHANNELS 3 Zrotation Yrotation Xrotation
						JOINT lelbow
						{
							OFFSET 0.255332 -0.015649 -0.022946
							CHANNELS 3 Zrotation Yrotation Xrotation
							JOINT lwrist
							{
								OFFSET 0.265709 0.012698 -0.007375
								CHANNELS 3 Zrotation Yrotation Xrotation
								End Site
								{
									OFFSET 0.000000 0.000000 0.000000
								}
							}
						}
					}
				}
				JOINT rclavicle
				{
					OFFSET -0.082954 0.112472 -0.023707
					CHANNELS 3 Zrotation Yrotation Xrotation
					JOINT rshoulder
					{
						OFFSET -0.113228 0.046853 -0.008472
						CHANNELS 3 Zrotation Yrotation Xrotation
						JOINT relbow
						{
							OFFSET -0.260127 -0.014369 -0.031269
							CHANNELS 3 Zrotation Yrotation Xrotation
							JOINT rwrist
							{
								OFFSET -0.269108 0.006794 -0.006027
								CHANNELS 3 Zrotation Yrotation Xrotation
								End Site
								{
									OFFSET 0.000000 0.000000 0.000000
								}
							}
						}
					}
				}
			}
		}
	}
}
MOTION
Frames: 8
Frame Time: 0.033333
-0.018582 -0.457229 0.987871 -179.251524 -1.460085 87.614996 -0.421357 0.568554 5.533946 -6.180175 -5.006912 5.901179 -1.571709 2.200704 -22.418580 0.000000 -0.000000 0.000000 -4.632934 -1.222870 -13.265576 -2.528462 -7.671078 13.220478 8.436675 -0.233219 -8.323936 0.000000 -0.000000 0.000000 0.446058 -0.331146 3.939998 0.812847 -1.506869 1.131603 -3.182351 -1.957497 1.568428 2.172877 -14.278152 6.783152 4.529922 -20.436034 1.894166 -17.426391 0.894431 0.802634 -56.648786 -11.301563 27.831942 -151.700635 -64.980650 -179.226577 10.641165 -10.517694 -20.257671 13.770733 0.517329 -1.766436 70.993375 -0.350712 25.488068 -174.142037 77.523858 -154.032171 -4.441562 8.077052 -26.394657 
-0.025127 -0.468672 0.986984 179.880249 -1.823433 87.714347 -1.207212 0.825451 5.207803 -6.304376 -3.445609 4.403736 4.624126 5.361956 -22.860594 0.000000 -0.000000 0.000000 -5.460884 -1.014943 -14.922206 -2.160395 -6.593813 14.725387 9.101637 -1.441646 -9.256215 0.000000 -0.000000 0.000000 -0.103823 -0.915324 3.665660 0.491185 -1.087586 1.332959 -3.300485 -1.434123 3.046455 3.116326 -13.449890 4.635138 4.365170 -20.309570 2.265538 -16.684188 1.486535 0.213049 -56.360506 -12.006154 27.321430 -151.492657 -64.621734 -179.722144 11.736264 -9.530641 -20.662968 14.351919 0.822601 -2.104334 69.435604 0.581077 27.111759 -175.562266 77.324403 -157.197562 -7.076436 7.007131 -25.783181 
-0.030516 -0.478331 0.986786 179.066673 -1.948070 87.129376 -1.672059 0.955254 6.341563 -6.364998 -3.285813 2.368466 4.574549 5.363647 -22.315790 0.000000 -0.000000 0.000000 -5.837614 -0.780273 -15.574524 -2.106243 -6.469314 16.008896 9.073480 -1.851376 -10.582366 0.000000 -0.000000 0.000000 -0.457713 -1.155073 3.530021 0.280084 -0.918490 2.958124 -3.335034 -0.994420 3.860623 3.824683 -11.514669 2.766147 3.540257 -20.017549 2.190252 -16.584402 2.029839 -0.896159 -55.692977 -12.572553 27.001698 -151.949163 -64.547905 179.690872 10.996088 -9.960468 -20.525246 15.181874 0.952582 -3.142798 67.657805 1.341737 28.644021 -176.893974 77.163929 -160.409085 -8.830140 6.358979 -25.226791 
-0.037054 -0.490321 0.987212 178.409392 -2.032085 86.590813 -2.365683 1.210042 7.514227 -5.904701 -3.539382 0.001528 3.995103 5.557136 -21.311285 0.000000 -0.000000 0.000000 -6.227659 -1.053039 -16.788700 -2.250925 -7.865706 18.318300 8.684901 -3.007019 -12.676068 0.000000 -0.000000 0.000000 -0.869649 -1.353138 4.138301 0.174086 -0.463349 2.863966 -3.475104 -1.334674 4.771684 4.413491 -11.100218 0.724948 1.640843 -20.651824 2.898007 -16.906317 3.218346 -1.482401 -54.457544 -12.598940 26.147281 -151.705242 -64.476720 178.772293 9.617774 -10.928289 -20.325756 15.569624 0.165192 -4.095116 67.513600 1.305501 29.508930 -177.430898 77.874765 -161.316374 -8.651677 6.467777 -24.577669 
-0.038808 -0.494069 0.987452 178.244239 -1.952255 86.443454 -2.459389 1.228357 7.707400 -5.771950 -3.736640 -0.489900 4.055651 5.761797 -20.917516 0.000000 -0.000000 0.000000 -6.243264 -1.154849 -17.142753 -2.192056 -8.185541 19.231641 8.574137 -3.426666 -12.907304 0.000000 -0.000000 0.000000 -0.920312 -1.527673 4.343795 0.130985 -0.394179 2.830421 -3.484714 -1.302365 4.810440 4.413644 -10.955966 1.036299 1.662936 -20.434204 2.815488 -17.050613 3.496253 -1.445599 -53.924305 -12.256416 25.800546 -151.525395 -64.344757 178.446357 9.446018 -9.902900 -20.132493 15.673599 0.095929 -4.148696 67.255514 1.288226 29.493145 -178.155673 78.047196 -162.029866 -8.718728 6.237800 -24.228399 
-0.041859 -0.501462 0.988269 178.111060 -1.839119 86.170924 -2.722414 1.050060 7.654895 -5.497614 -3.831883 -0.768451 4.053798 5.982862 -20.568708 0.000000 -0.000000 0.000000 -6.249566 -0.958267 -17.660029 -2.228643 -8.431196 21.350234 8.279830 -3.915852 -13.613257 0.000000 -0.000000 0.000000 -1.029159 -1.779957 4.925262 0.033641 -0.312453 2.386096 -3.500894 -1.253553 5.034015 4.499326 -10.735120 1.265978 1.529062 -20.302798 2.971221 -17.387292 4.317947 -1.586853 -53.523749 -12.414971 24.957529 -150.008299 -64.329772 176.305441 9.649312 -11.219408 -19.623458 15.791139 -0.254613 -4.405837 66.878670 1.118845 29.479615 -178.778131 78.420197 -162.889665 -8.937740 6.390453 -23.712749 
-0.044268 -0.508661 0.989364 177.954608 -1.592033 86.128522 -2.736446 0.935248 7.041694 -5.432997 -3.789961 -0.483836 4.258807 6.225782 -20.430690 0.000000 -0.000000 0.000000 -5.940999 -0.364523 -18.289700 -2.290381 -7.969538 24.126580 7.869703 -4.289033 -14.635539 0.000000 -0.000000 0.000000 -0.910817 -1.993690 5.038756 0.034442 -0.289160 2.345250 -3.589559 -1.130391 4.969104 4.230969 -10.690348 1.782198 1.593484 -20.015789 2.786959 -17.649072 4.416752 -1.557308 -53.242622 -12.027834 24.953642 -150.493008 -64.528195 176.557373 10.633003 -10.283242 -19.890920 15.915493 -0.314544 -4.337004 66.411577 0.844695 29.273883 -177.930221 78.471829 -162.032467 -9.453428 6.113494 -23.553825 
-0.045854 -0.514284 0.990905 178.070807 -1.385901 85.778910 -2.633013 0.915605 7.020663 -5.503482 -3.783913 -0.426269 4.103827 6.278678 -20.244312 0.000000 -0.000000 0.000000 -5.660955 0.141824 -18.211028 -2.368154 -7.471944 27.288047 7.569442 -4.413539 -15.902807 0.000000 -0.000000 0.000000 -0.889259 -2.019105 5.082182 0.121430 -0.416466 2.735296 -3.619051 -1.066065 4.911602 4.128286 -10.678141 2.007141 1.600837 -19.951010 2.535252 -17.895291 4.390625 -1.448060 -53.106122 -11.856518 24.716859 -150.958304 -64.863348 177.157395 11.096799 -10.593739 -19.647544 15.976977 -0.411743 -4.405146 65.980537 0.561861 28.811836 -176.979321 78.389670 -161.013409 -9.847923 6.259544 -23.870842 
